<mxfile host="app.diagrams.net" modified="2023-11-15T02:53:57.164Z" agent="Mozilla/5.0 (Macintosh; Intel Mac OS X 10_15_7) AppleWebKit/537.36 (KHTML, like Gecko) Chrome/119.0.0.0 Safari/537.36" version="21.7.5" etag="ZHOOlw5rAacDLnTRPaCv" type="github">
  <diagram name="第 1 页" id="FTbz0e3pOwdENS1Vb9-P">
    <mxGraphModel>
      <root>
        <mxCell id="0" />
        <mxCell id="1" parent="0" />
      </root>
    </mxGraphModel>
  </diagram>
</mxfile>
